<svg width="1281" height="334" viewBox="0 0 1281 334" fill="none" xmlns="http://www.w3.org/2000/svg">
<path d="M233.378 166.669C233.378 220.276 223.336 261.478 203.252 290.275C183.168 319.072 154.445 333.47 117.082 333.47C79.5722 333.47 50.7751 319.146 30.691 290.496C10.6068 261.699 0.564763 220.276 0.564763 166.226C0.564763 112.619 10.6068 71.5643 30.691 43.0626C50.7751 14.4131 79.7199 0.0884055 117.525 0.0884055C154.888 0.0884055 183.537 14.487 203.474 43.2841C223.41 71.9335 233.378 113.062 233.378 166.669ZM62.1463 166.669C62.1463 203.588 66.7981 231.721 76.1018 251.066C85.4055 270.412 99.0657 280.085 117.082 280.085C153.411 280.085 171.575 242.28 171.575 166.669C171.575 91.0577 153.559 53.2523 117.525 53.2523C99.2133 53.2523 85.4055 62.9252 76.1018 82.2709C66.7981 101.469 62.1463 129.602 62.1463 166.669ZM428.313 239.769C428.313 270.043 420.633 293.228 405.275 309.325C390.064 325.422 368.06 333.47 339.263 333.47C311.057 333.47 287.059 327.932 267.27 316.857V257.269C291.489 273.07 313.715 280.971 333.947 280.971C345.466 280.971 354.105 277.796 359.864 271.446C365.771 265.096 368.725 256.457 368.725 245.528C368.725 234.748 365.254 224.927 358.313 216.067C351.373 207.058 339.928 197.09 323.978 186.162C310.097 176.563 299.538 167.407 292.302 158.694C285.213 149.833 279.675 139.939 275.688 129.011C271.848 118.083 269.929 105.382 269.929 90.9101C269.929 63.1467 277.608 41.1428 292.966 24.8982C308.472 8.6537 329.221 0.531438 355.212 0.531438C380.022 0.531438 403.872 7.47228 426.762 21.354L406.826 69.6445C399.737 65.5095 392.279 61.8176 384.452 58.5687C376.773 55.3198 368.503 53.6953 359.643 53.6953C349.896 53.6953 342.364 56.9442 337.048 63.4421C331.879 69.7922 329.295 78.5052 329.295 89.581C329.295 100.509 332.396 110.034 338.599 118.157C344.949 126.279 355.951 135.509 371.604 145.846C392.722 160.023 407.416 174.496 415.686 189.263C424.104 204.031 428.313 220.866 428.313 239.769ZM621.475 329.04L602.867 247.301H518.47L499.862 329.04H439.61L519.799 3.85418H601.538L681.949 329.04H621.475ZM591.57 193.915L574.292 118.6C573.258 114.022 570.895 102.577 567.203 84.2646C563.659 65.8049 561.518 53.4738 560.779 47.2714C558.86 59.9716 556.423 74.001 553.469 89.3595C550.516 104.57 542.837 139.422 530.432 193.915H591.57ZM826.156 329.04L764.574 53.2523H762.138C764.943 74.5179 766.346 94.0113 766.346 111.733V329.04H710.524V5.18328H803.118L858.497 259.705H860.269L915.205 5.18328H1009.13V329.04H951.977V109.517C951.977 91.3531 953.011 72.7457 955.078 53.6953H953.306L891.946 329.04H826.156ZM1219.57 329.04L1200.96 247.301H1116.56L1097.96 329.04H1037.7L1117.89 3.85418H1199.63L1280.04 329.04H1219.57ZM1189.66 193.915L1172.39 118.6C1171.35 114.022 1168.99 102.577 1165.3 84.2646C1161.75 65.8049 1159.61 53.4738 1158.87 47.2714C1156.95 59.9716 1154.52 74.001 1151.56 89.3595C1148.61 104.57 1140.93 139.422 1128.53 193.915H1189.66Z" fill="#E7E7E7"/>
</svg>
