<?xml version="1.0" encoding="UTF-8"?>
<svg id="_Слой_2" data-name="Слой 2" xmlns="http://www.w3.org/2000/svg" xmlns:xlink="http://www.w3.org/1999/xlink" viewBox="0 0 271.23 376.32">
  <defs>
    <style>
      .cls-1 {
        stroke-width: 2px;
      }

      .cls-1, .cls-2, .cls-3 {
        stroke: #000;
        stroke-linejoin: round;
      }

      .cls-1, .cls-4 {
        fill: #fffdf6;
      }

      .cls-2 {
        fill: url(#_Новый_образец_узора_2);
      }

      .cls-2, .cls-3 {
        stroke-width: 1.23px;
      }

      .cls-5, .cls-3 {
        fill: none;
      }

      .cls-3 {
        stroke-linecap: round;
      }
    </style>
    <pattern id="_Новый_образец_узора_2" data-name="Новый образец узора 2" x="0" y="0" width="12.58" height="13.47" patternTransform="translate(-145.34 457.04)" patternUnits="userSpaceOnUse" viewBox="0 0 12.58 13.47">
      <g>
        <rect class="cls-5" x="0" y="0" width="12.58" height="13.47"/>
        <path class="cls-1" d="m24.78,15.71c-5.29,2.07-8.45,1.16-14.03-5.5,4.18,7.68,4.37,10.4.73,15.21,2.03,2.45,6.49,7.42,12.56,2.99s.85-12.07.74-12.7Z"/>
        <path class="cls-1" d="m12.19,15.71c-5.29,2.07-8.45,1.16-14.03-5.5,4.18,7.68,4.37,10.4.73,15.21,2.03,2.45,6.49,7.42,12.56,2.99s.85-12.07.74-12.7Z"/>
        <path class="cls-1" d="m-.39,15.71c-5.29,2.07-8.45,1.16-14.03-5.5,4.18,7.68,4.37,10.4.73,15.21,2.03,2.45,6.49,7.42,12.56,2.99S-.28,16.35-.39,15.71Z"/>
        <path class="cls-1" d="m24.78,2.25c-5.29,2.07-8.45,1.16-14.03-5.5,4.18,7.68,4.37,10.4.73,15.21,2.03,2.45,6.49,7.42,12.56,2.99s.85-12.07.74-12.7Z"/>
        <path class="cls-1" d="m12.19,2.25C6.91,4.32,3.74,3.41-1.83-3.25,2.34,4.43,2.54,7.15-1.11,11.96c2.03,2.45,6.49,7.42,12.56,2.99s.85-12.07.74-12.7Z"/>
        <path class="cls-1" d="m-.39,2.25c-5.29,2.07-8.45,1.16-14.03-5.5,4.18,7.68,4.37,10.4.73,15.21,2.03,2.45,6.49,7.42,12.56,2.99S-.28,2.88-.39,2.25Z"/>
        <path class="cls-1" d="m24.78-11.22c-5.29,2.07-8.45,1.16-14.03-5.5,4.18,7.68,4.37,10.4.73,15.21,2.03,2.45,6.49,7.42,12.56,2.99s.85-12.07.74-12.7Z"/>
        <path class="cls-1" d="m12.19-11.22c-5.29,2.07-8.45,1.16-14.03-5.5C2.34-9.04,2.54-6.32-1.11-1.51.92.94,5.39,5.91,11.45,1.48s.85-12.07.74-12.7Z"/>
        <path class="cls-1" d="m-.39-11.22c-5.29,2.07-8.45,1.16-14.03-5.5,4.18,7.68,4.37,10.4.73,15.21C-11.66.94-7.2,5.91-1.13,1.48S-.28-10.59-.39-11.22Z"/>
      </g>
    </pattern>
  </defs>
  <g id="_Слой_1-2" data-name="Слой 1">
    <g>
      <g>
        <path class="cls-4" d="m73.11,223.97c44.37-36.56-7.87-66.95,11.75-100,1.86.63,18.82,14.8,27.25,30.18,7.47,21.84,2.48,30.52.74,32.37.17,10.47-9.49,19.91-13.14,24.45-4.78,4.26-9.12,7.84-17.11,10.55-3.07,1.32-6.01,1.78-8.49,2.25-.33.07-.66.13-1,.2Z"/>
        <path class="cls-3" d="m73.11,223.97c44.37-36.56-7.87-66.95,11.75-100,1.86.63,18.82,14.8,27.25,30.18,7.47,21.84,2.48,30.52.74,32.37m-39.75,37.45c14.61-2.82,20.21-7.31,26.61-13m-26.61,13c17.54-5.44,29.78-22,17.5-59m-17.5,59c6.75-1.42,17.78-1.68,24.86-22m1.74,9c3.65-4.54,13.31-13.98,13.14-24.45m-13.14,24.45c4.66-8.83,9.88-30.5-12.11-60.93m12.11,60.93c3.28-7.95,12.31-21.66,6.39-34.5m6.75,10.05c-.7-7.7-2.91-23.85-11.25-34.55m11.25,34.55c.98-4.16,2.31-13.8-.74-18.55"/>
      </g>
      <g>
        <path class="cls-4" d="m79.6,13.65c10.33.62,22.21,5.68,34.92,11.16.75-.73,2.55-1.93,3.76-.96,1.88-.48,12.08-4.48,14,8.15.76.61,3.69,3.47,1.46,4.54,4.38,4.41,11.65,11.88,15.52,16.66,14.82-2.01,11.71,5.24,10.49,6.76-1.22,1.51-3.02,1.54-3.85,1.38-46.94-8.86-49.71-6.35-55.64-2.53-6.46,4.15-12.77,20.59-18.45,39.97-3.43,11.69-6.97,14.7-9.37,15.51-5.2.43-4.06-6.88.2-9.62-2.85-6.62-8.57-21.2-8.29-21.68-4.02,1.13-4.46-2.97-4.02-3.98-7.32-5.14-4.65-12.34-3.67-14.79-.99-1.99.66-3.71,1.6-4.32-2.1-6.1-4.42-16.1-3.98-24.92-3.07-2.51-4.88-10.99,4.97-19.51,13.25-10.27,19.09-5.49,20.36-1.82Z"/>
        <path class="cls-3" d="m58.25,59.9c15.88,7.67,6.44,22.5,6.09,23.09m-6.09-23.09c-2.1-6.1-4.42-16.1-3.98-24.92m3.98,24.92c-.95.61-2.59,2.32-1.6,4.32m57.87-39.41c1.14,2.91,1.72,14.59,19.22,11.73m-19.22-11.73c-12.7-5.48-24.58-10.54-34.92-11.16m34.92,11.16c.75-.73,2.55-1.93,3.76-.96m15.46,12.69c2.23-1.07-.7-3.93-1.46-4.54m1.46,4.54c4.38,4.41,11.65,11.88,15.52,16.66m2.62,4.16c-4.78.52-28.7-4.9-34.4-5.25-6.71-.79-15.07-.16-19.73,3.93-4.66,4.1-9.58,10.54-12.94,20.73-2.6,7.88-8.83,29.4-10.73,30.99m77.8-50.4c.01-.65-1.01-2.17-2.62-4.16m2.62,4.16c.76.24,2.48.67,3.23.48m-81.03,49.92c-.23-.35-.75-1.49-1.44-3.09m1.44,3.09c-.23.39-.89,1.23-1.64,1.42m-8.08-26.19c-4.02,1.13-4.46-2.97-4.02-3.98m4.02,3.98c-.28.47,5.44,15.06,8.29,21.68m6.97-91.02c-6.51-.39-12.41.97-17.52,5.1-4.8,3.88-7.46,9.2-7.81,16.23m25.33-21.33c-14.62,5.87-3.07,23.4,4.52,31.44-19.39-21.98-27.98-15.89-29.85-10.1m25.33-21.33c-1.27-3.67-7.11-8.45-20.36,1.82-9.85,8.52-8.04,17-4.97,19.51m2.38,29.24c-.98,2.45-3.65,9.65,3.67,14.79m-3.67-14.79c.28.06,1.26-.66,1.88-.48,4.68,1.37,5.79,15.25,4.76,15.92-1.03.66-2.97-.65-2.97-.65m57.96-55.16c1.88-.48,12.08-4.48,14,8.15m-14-8.15c-.15.34-.87.92-1.22,1.51,3.95,8.41,14.07,8.83,14.68,8.08.49-.61.56-1.21.54-1.44m-59.65,72.67c-4.26,2.74-5.4,10.04-.2,9.62,2.4-.81,5.94-3.82,9.37-15.51,5.68-19.38,12-35.82,18.45-39.97,5.94-3.82,8.7-6.33,55.64,2.53.83.16,2.64.13,3.85-1.38,1.22-1.51,4.33-8.76-10.49-6.76"/>
      </g>
      <g>
        <path class="cls-4" d="m94.32,11.41c-8.43-1.26-11.56,2.29-11.99,5.38.34.15,1.68,1.47,4.17.22,3.12-4.54,5.83-2.48,7.62-2.54,1.96.19,10.45,2,13.96.09,3.6-2.34,4.99-5.28,7.17-8.13,3.69-4.82,7.21-4.37,11.02-4.15-3.56-.98-8.02-4.2-12.95,2.3-7.77,8.33-8.45,8.41-18.98,6.83Z"/>
        <path class="cls-3" d="m87.77,17.28c-1.14.5-4.18.89-6.88-1.02m1.44.53c.44-3.09,3.56-6.64,11.99-5.38,10.54,1.58,11.22,1.5,18.98-6.83,4.93-6.5,9.39-3.28,12.95-2.3-3.8-.22-7.32-.66-11.02,4.15-2.18,2.84-3.56,5.79-7.17,8.13-3.51,1.91-12.01.11-13.96-.09-1.79.06-4.5-2-7.62,2.54-2.48,1.25-3.83-.08-4.17-.22Z"/>
      </g>
      <g>
        <path class="cls-4" d="m48.47,43.56c1.65-4.2,6.62-7.3,9.33-8.19.3.66.7,2.69-.09,5.53-4.44,1.03-5.75,2.97-6.1,8.67.04,28.44-3.14,27.48-13.99,31.4,18-6.5,8.5-31.4,10.86-37.41Z"/>
        <path class="cls-3" d="m57.44,42.18c1.38-1.25,1.56-5.53-.04-8m.41,1.2c-2.71.89-7.68,3.99-9.33,8.19-2.36,6.01,7.14,30.91-10.86,37.41,10.86-3.92,14.04-2.96,13.99-31.4.35-5.7,1.66-7.64,6.1-8.67.8-2.85.39-4.88.09-5.53Z"/>
      </g>
      <g>
        <path class="cls-4" d="m270.62,143.97c-48.37-10.5-65.58-81-105.4-73.75-.16,1.96,5.61,26.45,16.4,40.27,17.1,15.49,29.75,25.84,32.13,24.98,9.56,4.3,17.76,10.06,23.37,8.5,0,0,23.67,11.5,33.5,0Z"/>
        <path class="cls-3" d="m270.62,143.97c-48.37-10.5-65.58-81-105.4-73.75-.16,1.96,5.61,26.45,16.4,40.27,17.1,15.49,29.75,25.84,32.13,24.98m56.87,8.5c-9.83,11.5-33.5,0-33.5,0m33.5,0c-17,4.66-47.06-18.24-65.58-45m65.58,45c-10.01,4.94-27,0-37.5-8.5m4,8.5c-5.61,1.56-13.81-4.2-23.37-8.5m23.37,8.5c-9.96.79-29.78-28.7-49.04-60.92m49.04,60.92c-8.6-.13-26-15-32.08-27.5m8.71,19c-6.8-3.68-22.91-26.91-29.44-38.8m29.44,38.8c-4.2-.74-15.73-18.14-18.89-22.83"/>
      </g>
      <g>
        <path class="cls-4" d="m30.62,279.47c30.5-2.5,128.16,84.71,151.02,6.81l.51,18.47c.55.35,2.89-1.19,7.83-10.13-15.37,103.36-161.37,104.86-189.36,21.86,33.99,41.5,74.5,37,85.5,35.5,9.5-6,20.49-4,23.49-8-17.16-8.82-24.7-18.28-27.35-18.97-.05-.01-.1-.02-.15-.03-27.5-20.22-34.5-34.8-51.49-45.51Z"/>
        <path class="cls-3" d="m30.62,279.47c30.5-2.5,128.16,84.71,151.02,6.81l.51,18.47c.55.35,2.89-1.19,7.83-10.13-15.37,103.36-161.37,104.86-189.36,21.86m30.01-37.01c16.99,10.7,23.99,25.29,51.49,45.51m-51.49-45.51c21.5,5.6,83.5,50.5,102.5,45.5m-102.5-45.5c11.5,4.57,27,19.5,47,34m4.49,11.51c2.51.34,10,10,27.5,19m-27.5-19c17,2.3,39,14.93,57,5.5m-57-5.5c6.5,1.26,14,7.5,24.5,12.5m3,6.5c-3,4-13.99,2-23.49,8m23.49-8c6.5-2.5,17.02,0,25.54-2.5m-49.03,10.5c-11,1.5-51.51,6-85.5-35.5m85.5,35.5c5,5,65.5,0,71.51-16m-71.51,16c17-2.32,19-4,34.5-4M.61,316.48c5.92,17,57.49,69,111.49,45M.61,316.48c20.99,27.5,43.5,39,54,38"/>
      </g>
      <path class="cls-2" d="m183.12,303.47c-5-103.5-69-137-109.52-189.07,10.05-5.37,12.31-44.98,26.03-55.43,15.43-11.75,58.78,8.55,61.23-.69,81.14,139.78,62.76,208.19,22.26,245.19Z"/>
      <g>
        <path class="cls-4" d="m106.92,248.39c26.04-6.23,37.88-31.75,39.19-49.99,1.49-5.27,11.05-12.34,11.02-32.99-1.67-26.35-26.81-59.81-43.87-81.92-1.05-1.19-1.91-2.3-2.56-3.31.83,1.07,1.68,2.18,2.56,3.31,14.43,16.47,63.54,48.96,66.12,60.91,1.58,2.27,8.19,9.33,10.16,13.54,6.26,13.34,4.67,36.15,3.06,40.46,0,9.58-12.5,23.53-18.17,26.08-2.99,10.68-26.43,15.12-31.83,17.5-4.41,3.93-23.5,9.5-38.5,7,.66-.17,1.61-.35,2.81-.59Z"/>
        <path class="cls-3" d="m104.11,248.98c28-5,40.64-31.69,42-50.58,1.49-5.27,11.05-12.34,11.02-32.99-1.76-27.7-29.45-63.26-46.42-85.23,9.63,14.97,65.91,51.41,68.68,64.22m-75.27,104.58c15,2.5,34.09-3.07,38.5-7m-38.5,7c6.62-1.66,43.5-5.5,53.02-38m-14.52,31c5.4-2.38,28.85-6.82,31.83-17.5m-31.83,17.5c8.05-9.64,23.5-17,23.5-31m-23.5,31c5.7-6.83,20.36-7.5,25-17.5m6.83,0c5.66-2.55,18.17-16.5,18.17-26.08m-18.17,26.08c1.06-11.02,8.1-28,1.2-39.35m-1.2,39.35c3.33-10.9,13.17-26.08,8.1-39.41m10.07,13.33c1.6-4.32,3.2-27.13-3.06-40.46-1.97-4.21-8.58-11.27-10.16-13.54m13.23,54c-2.7-10.06-7.51-31.83-18.17-38.41m18.17,38.41c-1.81-9.06-3.17-28.49-7.17-33.8m-6.05-20.19c-3.38-3.74-11.4-11.59-16.41-13.04"/>
      </g>
    </g>
  </g>
</svg>