<?xml version="1.0" encoding="UTF-8"?>
<svg id="_Слой_2" data-name="Слой 2" xmlns="http://www.w3.org/2000/svg" xmlns:xlink="http://www.w3.org/1999/xlink" viewBox="0 0 246.77 367.62">
  <defs>
    <style>
      .cls-1 {
        fill: url(#_Новый_образец_узора_3);
      }

      .cls-1, .cls-2, .cls-3 {
        stroke: #000;
        stroke-linejoin: round;
      }

      .cls-1, .cls-3 {
        stroke-width: 1.23px;
      }

      .cls-2 {
        stroke-width: 2px;
      }

      .cls-2, .cls-4 {
        fill: #fffdf6;
      }

      .cls-5, .cls-3 {
        fill: none;
      }

      .cls-3 {
        stroke-linecap: round;
      }
    </style>
    <pattern id="_Новый_образец_узора_3" data-name="Новый образец узора 3" x="0" y="0" width="12.57" height="10.94" patternTransform="translate(327.54 434.31)" patternUnits="userSpaceOnUse" viewBox="0 0 12.57 10.94">
      <g>
        <rect class="cls-5" y="0" width="12.57" height="10.94"/>
        <path class="cls-2" d="m-.84,22.19c-2.58-5.06-1.99-8.3,4.09-14.5-7.23,4.91-9.92,5.37-15.06,2.22-2.24,2.26-6.75,7.19-1.75,12.79s12.09-.34,12.71-.51Z"/>
        <path class="cls-2" d="m11.73,22.19c-2.58-5.06-1.99-8.3,4.09-14.5-7.23,4.91-9.92,5.37-15.06,2.22-2.24,2.26-6.75,7.19-1.75,12.79s12.09-.34,12.71-.51Z"/>
        <path class="cls-2" d="m24.31,22.19c-2.58-5.06-1.99-8.3,4.09-14.5-7.23,4.91-9.92,5.37-15.06,2.22-2.24,2.26-6.75,7.19-1.75,12.79s12.09-.34,12.71-.51Z"/>
        <path class="cls-2" d="m-.84,11.25C-3.42,6.19-2.83,2.95,3.25-3.25-3.98,1.66-6.67,2.12-11.81-1.03c-2.24,2.26-6.75,7.19-1.75,12.79s12.09-.34,12.71-.51Z"/>
        <path class="cls-2" d="m11.73,11.25c-2.58-5.06-1.99-8.3,4.09-14.5C8.59,1.66,5.9,2.12.76-1.03-1.48,1.23-5.99,6.16-.98,11.76s12.09-.34,12.71-.51Z"/>
        <path class="cls-2" d="m24.31,11.25c-2.58-5.06-1.99-8.3,4.09-14.5C21.16,1.66,18.48,2.12,13.34-1.03c-2.24,2.26-6.75,7.19-1.75,12.79s12.09-.34,12.71-.51Z"/>
        <path class="cls-2" d="m-.84.31C-3.42-4.74-2.83-7.98,3.25-14.19c-7.23,4.91-9.92,5.37-15.06,2.22-2.24,2.26-6.75,7.19-1.75,12.79C-8.49,6.49-1.47.48-.84.31Z"/>
        <path class="cls-2" d="m11.73.31c-2.58-5.06-1.99-8.3,4.09-14.5-7.23,4.91-9.92,5.37-15.06,2.22C-1.48-9.71-5.99-4.78-.98.82,4.08,6.49,11.11.48,11.73.31Z"/>
        <path class="cls-2" d="m24.31.31c-2.58-5.06-1.99-8.3,4.09-14.5-7.23,4.91-9.92,5.37-15.06,2.22-2.24,2.26-6.75,7.19-1.75,12.79,5.07,5.67,12.09-.34,12.71-.51Z"/>
      </g>
    </pattern>
  </defs>
  <g id="_Слой_1-2" data-name="Слой 1">
    <g>
      <g>
        <path class="cls-4" d="m.61,69.11c44.5,0,83-63,130.88-40.27-1.04,1.67-15.47,19.63-32.38,24.27-16.74,18.5-33.61,18.11-35,16-1.92,1.28-22.5,8.89-26.5,6h-.02c-5.54.82-30.49,4.49-36.98-6Z"/>
        <path class="cls-3" d="m.61,69.11c44.5,0,83-63,130.88-40.27-1.04,1.67-15.47,19.63-32.38,24.27-16.74,18.5-33.61,18.11-35,16m-63.5,0c6.5,10.5,31.5,6.81,37,6M.61,69.11c13,8.87,34.5-2.5,42,0m-42,0c6,5.5,52.5-7,79.5-29m-42.5,35c4,2.89,24.58-4.72,26.5-6m-26.5,6c17-2.5,23-12,33.5-15.5m-33.5,15.5c10.5-1.54,52.5-36,63-42.5m-36.5,36.5c7.65,1.11,11.38-4,14.5-6m-14.5,6c3-2,25.17-18.63,30.5-20.5"/>
      </g>
      <g>
        <path class="cls-4" d="m240.03,49.29c-3,9.91-10.67,20.29-18.95,31.38.53.9,1.29,2.93.06,3.88.03,1.94,1.56,12.79-11.17,11.73-.77.59-4.23,2.78-4.75.37-5.3,3.24-14.25,8.58-19.8,11.23-1.48,14.88-7.81,10.18-9,8.64-1.19-1.53-.8-3.3-.45-4.07,19.5-43.61,17.7-46.88,15.36-53.54-2.54-7.24-17.07-17.2-34.61-27.21-10.58-6.04-12.68-10.19-12.92-12.71.79-5.16,7.63-2.35,9.31,2.43,7.1-1.24,22.61-3.42,23.01-3.04-.16-4.17,3.92-3.65,4.81-2.99,6.7-5.93,13.08-1.66,15.24-.15,2.17-.5,3.46,1.5,3.83,2.56,6.42-.62,16.69-.57,25.16,1.9,3.15-2.41,11.82-2.2,17.83,9.36,6.92,15.27.92,19.85-2.95,20.23Z"/>
        <path class="cls-3" d="m199.99,17.81c-11.14,13.67-23.38,1.05-23.87.57m23.87-.57c6.42-.62,16.69-.57,25.16,1.9m-25.16-1.9c-.37-1.06-1.66-3.06-3.83-2.56m24.92,65.42c-3.1.44-14.59-1.71-15.86,15.98m15.86-15.98c8.28-11.09,15.95-21.47,18.95-31.38m-18.95,31.38c.53.9,1.29,2.93.06,3.88m-15.92,12.1c.52,2.42,3.98.23,4.75-.37m-4.75.37c-5.3,3.24-14.25,8.58-19.8,11.23m-4.65,1.58c.6-4.77,11.42-26.78,13.08-32.24,2.33-6.35,3.65-14.62.75-20.11-2.9-5.49-8.03-11.76-17.17-17.39-7.06-4.35-26.55-15.4-27.66-17.62m31,87.36c.63.16,2.35-.48,4.65-1.58m-4.65,1.58c-.41.69-1.23,2.25-1.21,3.03m-29.79-90.39c.4-.14,1.62-.38,3.34-.68m-3.34.68c-.33-.32-.99-1.15-1-1.93m27.35-1.79c-.16-4.17,3.92-3.65,4.81-2.99m-4.81,2.99c-.4-.38-15.91,1.8-23.01,3.04m86.93,27.87c1.89-6.25,1.93-12.3-.9-18.22-2.67-5.57-7.22-9.39-13.98-11.36m14.88,29.58c-2.32-15.58-22.05-8.41-31.63-2.88,25.88-13.77,21.95-23.54,16.75-26.7m14.88,29.58c3.87-.38,9.87-4.96,2.95-20.23-6.01-11.55-14.67-11.76-17.83-9.36m-28.99-4.46c-2.16-1.52-8.54-5.79-15.24.15m15.24-.15c-.12.26.35,1.38.03,1.94-2.42,4.23-16.18,2.1-16.58.94-.41-1.16,1.32-2.74,1.32-2.74m40.23,69.16c.03,1.94,1.56,12.79-11.17,11.73m11.17-11.73c-.3-.22-.7-1.06-1.19-1.53-9.1,1.89-11.85,11.64-11.26,12.41.48.61,1.05.83,1.28.85m-56.87-74.86c-1.68-4.78-8.52-7.58-9.31-2.43.24,2.52,2.34,6.66,12.92,12.71,17.54,10.02,32.06,19.97,34.61,27.21,2.34,6.66,4.14,9.93-15.36,53.54-.35.77-.74,2.54.45,4.07,1.19,1.53,7.52,6.24,9-8.64"/>
      </g>
      <g>
        <path class="cls-4" d="m239.86,64.14c.25-7.02-.62-11.77-3.52-12.91-.22.3-1.82,1.3-1.18,4,3.7,4.08,1.45,7.39,1.45,9.89-.64,1.86-.74,6.5-5,12-2,2.59-3.5,12-1.32,19.45,2.32,6.05,2.58,8.03,1.49,11.68,1.78-3.24,3.38-9.13,1.83-13.13-5-10.5,7-24,6.25-30.98Z"/>
        <path class="cls-3" d="m234.6,56.4c-.22-1.23.11-4.27,2.59-6.46m-.85,1.28c2.9,1.14,3.77,5.89,3.52,12.91.75,6.98-11.25,20.48-6.25,30.98,1.55,4-.05,9.9-1.83,13.13,1.09-3.65.83-5.63-1.49-11.68-2.18-7.45-.69-16.86,1.32-19.45,4.26-5.5,4.36-10.14,5-12,0-2.5,2.25-5.8-1.45-9.89-.64-2.71.96-3.71,1.18-4Z"/>
      </g>
      <g>
        <path class="cls-4" d="m218.15,12.08c3.71,2.58,5.57,8.13,5.81,10.97-.71.14-2.78.06-5.36-1.37.02-4.56-1.56-6.29-7.02-7.95-22.46-3.63-30.46-1.13-34.96-13.13,9,11,36.23,7.78,41.53,11.47Z"/>
        <path class="cls-3" d="m217.42,21.12c.9,1.64,5.01,2.79,7.79,1.82m-1.26.12c-.24-2.84-2.1-8.4-5.81-10.97-5.3-3.69-32.53-.47-41.53-11.47,4.5,12,12.5,9.5,34.96,13.13,5.46,1.66,7.04,3.38,7.02,7.95,2.59,1.43,4.65,1.51,5.36,1.37Z"/>
      </g>
      <g>
        <path class="cls-4" d="m165.61,211.11c-44.5-55,20.5-59.5,2.36-106.1-1.9.5-23.12,14.02-32.6,28.78-8.98,21.26-3.25,23.33-3.25,23.33-.9,10.44,5.18,22.72,8.5,27.5,0,0,10,20,25,26.5Z"/>
        <path class="cls-3" d="m165.61,211.11c-44.5-55,20.5-59.5,2.36-106.1-1.9.5-23.12,14.02-32.6,28.78-8.98,21.26-3.25,23.33-3.25,23.33m33.5,54c-15-6.5-25-26.5-25-26.5m25,26.5c-7.5-7.36-32.5-32.5-13.5-60.5m13.5,60.5c-7.96-7.82-14.5-13.89-23-31m-2,4.5c-3.32-4.78-9.4-17.06-8.5-27.5m8.5,27.5c-4.03-9.14-2.23-39.5,19.5-46.5m-19.5,46.5c-2.72-8.16-8.76-19.5-2-31m-6.5,3.5c1.23-7.64,6.5-15.5,14-22m-14,22c-.68-4.21,1.12-9.98,4.5-14.5"/>
      </g>
      <g>
        <path class="cls-4" d="m132.11,366.11c-77.5,10.5-95.58-73.5-106.7-154.73l8.46,16.43c.65.08,2.09-2.32,2.67-12.53,40.08,70.33,88.58,44.83,115.58,96.71-37-20.88-42-9.38-59.5-19.38-5.5,1.98-16-3.92-19-4,0,7,7.5,26,6,28.5,11,17.5,13.5,32.5,52.5,49Z"/>
        <path class="cls-3" d="m132.11,366.11c-77.5,10.5-95.58-73.5-106.7-154.73l8.46,16.43c.65.08,2.09-2.32,2.67-12.53,40.08,70.33,88.58,44.83,115.58,96.71m-20,54.12c-39-16.5-41.5-31.5-52.5-49m52.5,49c-22.5-9-60.5,7.5-88.5-87.5m88.5,87.5c-16-1.83-45.5-15-55-38m2.5-11c1.5-2.5-6-21.5-6-28.5m6,28.5c-1.83-11-10-18.5-10-23.5m10,23.5c-11-12-29.5-38.5-31.5-45.5m25.5,17c3,.08,13.5,5.98,19,4m-19-4c-5.5-6.5-13-12.5-14-18m33,22c17.5,10,22.5-1.5,59.5,19.38m-59.5-19.38c6.67,2.34-28.5-24-39.5-37.5m39.5,37.5c-17-7.32-20-10.5-21-14m80.5,33.38c-23.5-21.95-39-31.02-65-35.88m65,35.88c-10-6.88-28.5-18.56-33.5-17.39"/>
      </g>
      <path class="cls-1" d="m34.11,227.11C-23.39,151.11,83.37,47.46,143.42,20.1c2.89,11.02,40.9,22.4,47.89,38.17,7.86,17.74-21.93,55.2-13.51,59.73C34.11,166.11,45.61,211.61,34.11,227.11Z"/>
      <g>
        <path class="cls-4" d="m21.61,208.61c9.5-20,22-78,38-84.5,5,0,20.36-5.5,36.5-14.5,26-14.5,46.5-34.84,74-44.5-27.5,9.66-48,52.16-55,65.5-1.05,2-2.22,7.22-5.5,10.5-1,1-5.5,6-13.5,12.5-8,4.5-16.5,9-23.5,9-5.5,4-16.5,14-24.5,14.5-3.5,2-18,22-26.5,31.5Z"/>
        <path class="cls-3" d="m21.61,208.61c9.5-20,22-78,38-84.5,5,0,20.36-5.5,36.5-14.5,26-14.5,46.5-34.84,74-44.5-27.5,9.66-48,52.16-55,65.5M21.61,208.61c8.5-9.5,23-29.5,26.5-31.5m-26.5,31.5c6.5-11,26.5-53.5,41-64.5m-14.5,33c8-.5,19-10.5,24.5-14.5m-24.5,14.5c7-4,18.5-17,21.5-17m-21.5,17c2-9,20-22.5,21.5-27m3,12.5c7,0,15.5-4.5,23.5-9m-23.5,9c9-4.5,16-14.5,20-21.5m-20,21.5c6.5-9,14-22.5,15-27m8.5,18c8-6.5,12.5-11.5,13.5-12.5,3.28-3.28,4.45-8.5,5.5-10.5m-19,23c4-8.5,6.5-7.5,10-18m-10,18c2.81-5,8-22,8-27.5m11,4.5c2.5-7.8,4.43-14.46,7-19"/>
      </g>
    </g>
  </g>
</svg>