<?xml version="1.0" encoding="UTF-8"?>
<svg id="_Слой_2" data-name="Слой 2" xmlns="http://www.w3.org/2000/svg" xmlns:xlink="http://www.w3.org/1999/xlink" viewBox="0 0 200.43 503.79">
  <defs>
    <style>
      .cls-1 {
        stroke-width: 2px;
      }

      .cls-1, .cls-2 {
        fill: #fffdf6;
      }

      .cls-1, .cls-3, .cls-4 {
        stroke: #000;
        stroke-linejoin: round;
      }

      .cls-5, .cls-4 {
        fill: none;
      }

      .cls-3 {
        fill: url(#_Новый_образец_узора_1);
      }

      .cls-3, .cls-4 {
        stroke-width: 1.23px;
      }

      .cls-4 {
        stroke-linecap: round;
      }
    </style>
    <pattern id="_Новый_образец_узора_1" data-name="Новый образец узора 1" x="0" y="0" width="20.17" height="18.87" patternTransform="translate(183.74 974.31)" patternUnits="userSpaceOnUse" viewBox="0 0 20.17 18.87">
      <g>
        <rect class="cls-5" width="20.17" height="18.87"/>
        <path class="cls-1" d="m8.23,20.31C2.74,18.87.72,16.27.14,7.6c-1.16,8.67-2.6,10.98-8.38,12.71.19,3.18.87,9.82,8.38,9.82s7.8-9.24,8.09-9.82Z"/>
        <path class="cls-1" d="m18.32,29.74c-5.49-1.44-7.51-4.04-8.09-12.71-1.16,8.67-2.6,10.98-8.38,12.71.19,3.18.87,9.82,8.38,9.82s7.8-9.24,8.09-9.82Z"/>
        <path class="cls-1" d="m28.4,20.31c-5.49-1.44-7.51-4.04-8.09-12.71-1.16,8.67-2.6,10.98-8.38,12.71.19,3.18.87,9.82,8.38,9.82s7.8-9.24,8.09-9.82Z"/>
        <path class="cls-1" d="m8.23,1.44C2.74,0,.72-2.6.14-11.27-1.01-2.6-2.46-.29-8.23,1.44c.19,3.18.87,9.82,8.38,9.82S7.94,2.02,8.23,1.44Z"/>
        <path class="cls-1" d="m18.32,10.88c-5.49-1.44-7.51-4.04-8.09-12.71-1.16,8.67-2.6,10.98-8.38,12.71.19,3.18.87,9.82,8.38,9.82s7.8-9.24,8.09-9.82Z"/>
        <path class="cls-1" d="m28.4,1.44C22.91,0,20.89-2.6,20.31-11.27,19.16-2.6,17.71-.29,11.94,1.44c.19,3.18.87,9.82,8.38,9.82S28.11,2.02,28.4,1.44Z"/>
        <path class="cls-1" d="m18.32-7.99c-5.49-1.44-7.51-4.04-8.09-12.71-1.16,8.67-2.6,10.98-8.38,12.71.19,3.18.87,9.82,8.38,9.82s7.8-9.24,8.09-9.82Z"/>
      </g>
    </pattern>
  </defs>
  <g id="_Слой_1-2" data-name="Слой 1">
    <g>
      <g>
        <path class="cls-2" d="m.61,173.3c57.08,6.9,51.23-64.01,88.69-72.6.83,1.78,1.47,29.1-3.85,45.81-10.65,20.47-20.39,22.85-22.92,22.87-7.47,7.35-20.47,11.46-26.27,11.94-13.74,4.56-23.52.61-35.64-8.02Z"/>
        <path class="cls-4" d="m.61,173.3c57.08,6.9,51.23-64.01,88.69-72.6.83,1.78,1.47,29.1-3.85,45.81-10.65,20.47-20.39,22.85-22.92,22.87m-61.91,3.93c12.12,8.63,21.9,12.58,35.64,8.02M.61,173.3c16.04,8.95,51.36-2.07,62.44-36.02M.61,173.3c5.69,3.91,21.95,9.5,41.55.61m-5.9,7.41c5.8-.49,18.8-4.6,26.27-11.94m-26.27,11.94c9.61-2.72,30.38-18.46,36.59-59.66m-36.59,59.66c8.02-3.11,25.21-12.01,30.42-25.15m-4.15,13.21c5.1-5.82,15.79-20.81,17.78-34.22m-17.78,34.22c3.68-2.16,11.38-7.85,12.71-13.34"/>
      </g>
      <g>
        <path class="cls-2" d="m146.7,11.26c7.94,6.64,14.49,17.77,21.45,29.73,1.03-.14,3.2-.04,3.6,1.46,1.8.73,12.38,3.57,6.42,14.87.25.94.91,4.98-1.52,4.52.9,6.15,2.31,16.47,2.58,22.62,13.11,7.19,6.3,11.17,4.42,11.67-1.88.49-3.35-.56-3.92-1.18-32.48-35.02-36.2-34.65-43.25-35.11-7.66-.5-22.51,8.97-38.59,21.18-9.71,7.37-14.34,7.68-16.75,6.91-4.44-2.75.82-7.94,5.88-7.62,1.64-7.01,5.71-22.14,6.22-22.36-3.9-1.48-1.83-5.04-.87-5.59-2.83-8.49,3.59-12.69,5.84-14.08.39-2.19,2.73-2.59,3.86-2.52,1.94-6.15,6.02-15.58,11.6-22.41-.98-3.85,2.61-11.74,15.59-12.74,16.76-.39,18.62,6.93,17.46,10.63Z"/>
        <path class="cls-4" d="m102.05,35.77c8.22,15.61-8.19,21.92-8.82,22.19m8.82-22.19c1.94-6.15,6.02-15.58,11.6-22.41m-11.6,22.41c-1.12-.07-3.47.33-3.86,2.52m69.96,2.7c-.81,3.02-7.29,12.75,8.49,20.85m-8.49-20.85c-6.96-11.96-13.51-23.08-21.45-29.73m21.45,29.73c1.03-.14,3.2-.04,3.6,1.46m4.89,19.39c2.43.47,1.77-3.58,1.52-4.52m-1.52,4.52c.9,6.15,2.31,16.47,2.58,22.62m-.37,4.9c-4.15-2.42-20.17-21-24.54-24.66-4.93-4.63-12.02-9.09-18.21-8.56-6.19.52-13.97,2.78-22.73,8.98-6.77,4.79-24.57,18.4-27.04,18.54m92.52,5.7c.39-.52.48-2.35.37-4.9m-.37,4.9c.47.65,1.59,2.01,2.31,2.3m-94.84-8c.03-.42.28-1.64.68-3.34m-.68,3.34c-.42.18-1.45.46-2.16.17m9.06-25.86c-3.9-1.48-1.83-5.04-.87-5.59m.87,5.59c-.51.21-4.58,15.35-6.22,22.36M146.7,11.26c-5-4.19-10.56-6.59-17.12-6.31-6.17.27-11.47,2.96-15.93,8.41m33.05-2.1c-15.24-3.97-16.38,16.99-15.04,27.97-2.53-29.2-13.06-29.41-18.01-25.87m33.05-2.1c1.16-3.71-.7-11.02-17.46-10.63-12.98,1-16.57,8.89-15.59,12.74m-15.46,24.93c-2.24,1.39-8.67,5.59-5.84,14.08m5.84-14.08c.19.22,1.41.21,1.8.73,2.95,3.88-4.4,15.71-5.63,15.63-1.23-.08-2.01-2.28-2.01-2.28m79.39-9.92c1.8.73,12.38,3.57,6.42,14.87m-6.42-14.87c-.32.18-1.25.23-1.88.49-1.82,9.11,6.07,15.47,7.01,15.22.75-.2,1.17-.64,1.28-.84m-91.16,22.99c-5.06-.33-10.31,4.87-5.88,7.62,2.41.77,7.05.46,16.75-6.91,16.09-12.21,30.94-21.68,38.59-21.18,7.05.46,10.76.08,43.25,35.11.58.62,2.05,1.67,3.92,1.18,1.88-.49,8.69-4.47-4.42-11.67"/>
      </g>
      <g>
        <path class="cls-2" d="m161.12,16.27c-6.03-6.02-11.91-3.08-14.09-.86.19.32.48,2.18,3.22,2.66,4.8-3.09,7.41-.47,8.89.54,1.46,1.32,7.21,7.82,11.18,8.37,4.29.26,7.15-1.29,10.59-2.28,5.83-1.68,9.39-2.77,12.32-.33-2.28-2.91-4.95-4.61-12.78-2.31-11.2,2.09-11.79,1.74-19.33-5.79Z"/>
        <path class="cls-4" d="m151.11,19.04c-1.21-.28-3.89-1.77-4.93-4.91m.85,1.28c2.19-2.22,8.06-5.17,14.09.86,7.54,7.53,8.13,7.87,19.33,5.79,7.83-2.29,10.49-.59,12.78,2.31-2.93-2.44-6.49-1.35-12.32.33-3.44.99-6.3,2.54-10.59,2.28-3.96-.55-9.72-7.05-11.18-8.37-1.48-1.01-4.08-3.63-8.89-.54-2.74-.47-3.03-2.34-3.22-2.66Z"/>
      </g>
      <g>
        <path class="cls-2" d="m103.89,16.82c3.39-2.98,9.66-1.94,12.37-1.04-.15.71-1.03,2.58-3.36,4.4-4.19-1.81-6.39-1.03-10.06,3.35-16.87,22.9-24,19.05-30.99,13.06,17.07,11.87,27.8-16.04,32.04-19.76Z"/>
        <path class="cls-4" d="m111.92,21.04c1.86-.19,4.53-3.52,4.73-6.46m-.38,1.21c-2.71-.89-8.98-1.94-12.37,1.04-4.24,3.72-14.97,31.63-32.04,19.76,6.99,5.99,14.13,9.84,30.99-13.06,3.67-4.38,5.87-5.16,10.06-3.35,2.33-1.82,3.21-3.69,3.36-4.4Z"/>
      </g>
      <g>
        <path class="cls-2" d="m195.19,214.27c-12.45-22.16,27.04-89.36-16.29-106.76-1.3,1.47-9.7,27.48-9.36,45.01.86,4.44,1.33,8.11,1.54,11.16-1.33,5.36-2.06,10.03-1.04,13.65-.19.88-.14,1.23.53,1.44-.05,1.5-.23,7.5,5.13,15.17,5.22,6.16,6.81,19.22,22.18,23.7-.93-.98-1.83-2.11-2.69-3.36Z"/>
        <path class="cls-4" d="m197.88,217.63c-19.97-17.62,26.84-91.72-18.99-110.12-1.3,1.47-9.7,27.48-9.36,45.01,4.38,22.66-1.39,25.51,1.03,26.25m27.31,38.86c-15.37-4.48-16.97-17.53-22.18-23.7m22.18,23.7c-13.26-7.91-7.69-10.24-16.71-26.03m16.71,26.03c-10.18-10.67-16.32-38.63-6.08-62.22m-16.1,38.52c-5.36-7.67-5.18-13.67-5.13-15.17m5.13,15.17c-3.93-12.63,1.18-20.97,2.2-25.94m-2.2,25.94c-2.06-17.57,14.19-41.58,14.62-55.58m-19.75,40.41c-3.23-7.03,2.08-18.94,5-32.36m-5,32.36c1.12-3.97,7.69-22.27,7.97-31.27"/>
      </g>
      <g>
        <path class="cls-2" d="m97.53,503.17c-48.91-68.54,40.09-148.33,22.86-198.63l7.55,16.87c.65.11,2.22-2.21,3.35-12.36,28.38,89.72,46.53,160.34,25.31,185-.4.51-.84.97-1.3,1.4.4-1.59.74-3.1,1.04-4.54,1.95-20.25-21.28-63.68-17.79-68.51-2.48-7.04-9.7-10.77-10.05-22.85-2.51,12.6-14.83,28.42-17.28,29.07-15.13,23.98-15.16,57.49-13.69,74.55Z"/>
        <path class="cls-4" d="m97.53,503.17c-48.91-68.54,40.09-148.33,22.86-198.63l7.55,16.87c.65.11,2.22-2.21,3.35-12.36,28.94,91.48,47.24,163.11,24.01,186.4m-57.77,7.72c-1.47-17.05-1.44-50.57,13.69-74.55m-13.69,74.55c-28.02-48.39,6.14-101.86,15.34-128.09m-15.34,128.09c-9.92-27.32-9.35-37.3,2.1-67.97m11.59-6.58c2.45-.65,14.76-16.47,17.28-29.07m-17.28,29.07c7.97-11.4,2.54-6.99,11.4-25.18m-11.4,25.18c-1.63-8.12,12.02-45.22,9.42-58.3m7.86,29.23c.35,12.08,7.56,15.8,10.05,22.85m-10.05-22.85c-.2-6.98.58-18.05.66-21.46m9.38,44.31c-3.77,5.24,23.79,55.76,16.76,73.05m-16.76-73.05c-.9-8.62-9.67-20.69-5.09-29.67m5.09,29.67c5.39-19.68-1.07-52.82-6.93-64.45m23.68,137.5c5.58-22.34.89-28.99-2.99-49.12m2.99,49.12c13.6-12.59,1.87-60.47-8.06-95.32"/>
      </g>
      <path class="cls-3" d="m127.83,320.03c-49.76-104.08-32.02-166.57-45.84-231.31,11.27,1.65,36.63-28.86,53.87-29.11,19.4-.28,42.19,41.8,49.66,35.83-20.86,128.68-41.65,186.57-57.69,224.59Z"/>
      <g>
        <path class="cls-2" d="m66.12,289.1c38.76-40.32,28.25-72.66,37.01-80.9,7.73-7.26,16.32-17.5,21.92-29.34,8.91-18.82,7.62-64.8,8.39-93.45,0-.64.02-1.25.05-1.83-.02.6-.04,1.21-.05,1.83.06,19.11,17.14,65.78,21.47,82.37,1.41,3.04,1.72,9.06,2.11,12.79,1.51,14.66-5.67,36.01-8.77,41.03-3.69,5.99-13.06,18.11-19.65,20.9-3.59,3.89-22.47,24.07-28.23,22.78-4.62,5.22-16.55,17.86-34.24,23.82Z"/>
        <path class="cls-4" d="m66.12,289.1c38.76-40.32,28.25-72.66,37.01-80.9,7.73-7.26,16.32-17.5,21.92-29.34,9.1-19.23,7.56-66.8,8.44-95.28-1.15,17.77,16.94,67.05,21.41,84.2m-88.78,121.32c17.69-5.96,29.62-18.59,34.24-23.82m-34.24,23.82c14.21-6.72,39.79-41.29,47.51-64.57m-13.27,40.75c5.76,1.3,24.64-18.89,28.23-22.78m-28.23,22.78c12.37-7.76,16.29-14.14,22.28-24.46m-22.28,24.46c5.71-6.46,20.48-31.02,20.71-38.52m7.52,15.74c6.59-2.8,15.97-14.91,19.65-20.9m-19.65,20.9c2.75-7.92,6.06-26.55,5.76-40.84m-5.76,40.84c6.73-7.3,13.22-23.1,11.7-38.66m7.96,17.75c3.1-5.03,10.28-26.38,8.77-41.03-.39-3.73-.7-9.74-2.11-12.79m-6.66,53.82c.33-10.65.77-24.99-5.28-39.68m5.28,39.68c3.93-8.36,3.03-24.78,2.97-31.42m3.69-22.4c-3.42-2.61-5.72-9.18-8.06-14.26"/>
      </g>
    </g>
  </g>
</svg>