<svg width="139" height="33" viewBox="0 0 139 33" fill="none" xmlns="http://www.w3.org/2000/svg">
<path d="M14.508 0.263999C22.464 0.263999 28.404 5.88 28.404 15.42C28.404 25.392 22.104 30.54 14.508 30.54C6.912 30.54 0.648 25.356 0.648 15.42C0.648 5.7 6.912 0.263999 14.508 0.263999ZM14.508 24.528C18.864 24.528 22.104 21.684 22.104 15.42C22.104 9.192 18.828 6.312 14.508 6.312C10.224 6.312 6.912 9.192 6.912 15.42C6.912 21.684 10.188 24.528 14.508 24.528ZM43.3662 12.576C48.0462 13.62 53.8422 14.916 53.8422 20.748C53.8422 26.508 49.4862 30.54 41.0982 30.54C34.1142 30.54 29.7582 26.472 29.7582 21.252V20.676H36.6702V21.252C36.6702 23.772 39.3702 24.636 42.0702 24.636C44.6262 24.636 47.2182 23.88 47.2182 21.252C47.2182 19.092 44.1222 18.372 40.5222 17.508C35.9502 16.428 30.2262 15.06 30.2262 9.624C30.2262 3.972 34.9422 0.299998 42.2142 0.299998C48.9102 0.299998 53.5902 4.152 53.5902 9.624V10.2H47.2182V9.624C47.2182 7.428 44.3382 6.096 41.5662 6.096C39.6942 6.096 36.9582 6.996 36.9582 9.084C36.9582 11.136 39.9102 11.82 43.3662 12.576ZM74.0495 30L71.7815 23.988H61.0535L58.7855 30H52.6655L63.3575 0.875999H70.1255L80.2055 30H74.0495ZM63.0695 18.624H69.7655L66.4175 9.768L63.0695 18.624ZM103.769 0.875999H110.537V30H104.417V13.332L97.9012 30H93.0772L86.5612 13.296V30H80.4412V0.875999H87.1732L95.4892 23.808L103.769 0.875999ZM132.163 30L129.895 23.988H119.167L116.899 30H110.779L121.471 0.875999H128.239L138.319 30H132.163ZM121.183 18.624H127.879L124.531 9.768L121.183 18.624Z" fill="#E7E7E7"/>
</svg>
